<svg version="1.1" id="Sony" xmlns="http://www.w3.org/2000/svg" width="72.7" height="12.8" viewBox="0 0 72.7 12.8" xml:space="preserve"><path d="M12.4.6H14v4h-1.5c0-.7-1-2.7-5.3-2.8-4.4-.2-4.8 2-3.3 2.4 1.9.6 5.6.5 8 1.2 3.1 1 3.9 4.3 1.2 6-2.4 1.6-6.6 1.4-9.6.4-.5-.2-1.4-.7-1.4 0v.4H.4V7.8H2C2 8 1.8 9 3.6 10c2.1 1.2 5.9 1.2 7.5.4.9-.5 1-2.1-.6-2.3-1.8-.3-4.6-.4-6.7-.9-1.5-.3-2.6-.8-3.3-1.6C0 4.9-.9 2.3 2.1.9c3.7-1.7 8.8-.5 9.7.2.4.4.8.3.6-.5m18.3 5.8c0-3-2.1-4.7-4.9-4.7-2.8 0-4.9 1.7-4.9 4.7s2.2 4.8 4.9 4.7c2.7-.1 4.9-1.7 4.9-4.7M25.9 0c4.1 0 8.4 2 8.4 6.5-.1 4.5-4.4 6.3-8.4 6.3s-8.7-1.8-8.8-6.3C17.1 2 21.9 0 25.9 0m44.4 2.6c-.3.4-4.4 5.2-4.4 5.2v2.6c0 .3 0 .3.3.3h1.7v1.5h-7.7v-1.5h1.9c.3 0 .3-.1.4-.3V7.8s-4.5-5-4.6-5c-.2-.2-.6-.6-1.3-.6h-1.3V.6h7.8v1.5h-.8c-.2 0-.4.4-.1.7.3.3 2.7 3.1 2.7 3.1l2.7-3.1c.2-.2.1-.7-.2-.7h-1V.6h6.4v1.5h-1.5c-.6 0-.9.4-1 .5M40.5 9.9c0 .8.4.7.7.7h1.5v1.5H36v-1.4h1.5c.6 0 .7-.4.7-.7V3c0-.5 0-.8-.8-.9H36V.6h5.7l7.7 7.2V2.9c0-.8-.4-.8-.7-.9h-1.4V.6h6.6v1.5h-1.6c-.4 0-.5.4-.6.7v9.3h-2.1l-9-7.9v5.7z" fill="#fff"/></svg>